{"title":"Adele - Set Fire to the rain( Live At The Royal Albert Hall)","uid":7252056,"size":411021223,"categoryP":"video","categoryS":"music_videos","magnet":"?xt=urn:btih:9c576b692beef52b91ea7de9d967b26a6e5de515&amp;dn=Adele+-+Set+Fire+to+the+rain%28+Live+At+The+Royal+Albert+Hall%29&amp;tr=udp%3A%2F%2Ftracker.openbittorrent.com%3A80&amp;tr=udp%3A%2F%2Fopen.demonii.com%3A1337&amp;tr=udp%3A%2F%2Ftracker.coppersurfer.tk%3A6969&amp;tr=udp%3A%2F%2Fexodus.desync.com%3A6969","seeders":1,"leechers":0,"uploader":"Banshan","files":1,"time":1336436012,"description":"General\nComplete name                  : Adele - Set Fire to the rain( Live At The Royal Albert Hall).mp4\nFormat                         : MPEG-4\nFormat profile                 : Base Media\nCodec ID                       : isom\nFile size                      : 392 MiB\nDuration                       : 3mn 57s\nOverall bit rate mode          : Variable\nOverall bit rate               : 13.8 Mbps\n\n\nVideo\nID                             : 1\nFormat                         : AVC\nFormat/Info                    : Advanced Video Codec\nFormat profile                 : &lt;a class=&quot;__cf_email__&quot; href=&quot;/cdn-cgi/l/email-protection&quot; data-cfemail=&quot;85cdece2edc5c9b1abb5&quot;&gt;[email&amp;#160;protected]&lt;/a&gt;&lt;script cf-hash='f9e31' type=&quot;text/javascript&quot;&gt;\n/* &lt;![CDATA[ */!function(){try{var t=&quot;currentScript&quot;in document?document.currentScript:function(){for(var t=document.getElementsByTagName(&quot;script&quot;),e=t.length;e--;)if(t[e].getAttribute(&quot;cf-hash&quot;))return t[e]}();if(t&amp;&amp;t.previousSibling){var e,r,n,i,c=t.previousSibling,a=c.getAttribute(&quot;data-cfemail&quot;);if(a){for(e=&quot;&quot;,r=parseInt(a.substr(0,2),16),n=2;a.length-n;n+=2)i=parseInt(a.substr(n,2),16)^r,e+=String.fromCharCode(i);e=document.createTextNode(e),c.parentNode.replaceChild(e,c)}}}catch(u){}}();/* ]]&gt; */&lt;/script&gt;\nFormat settings, CABAC         : Yes\nFormat settings, ReFrames      : 4 frames\nCodec ID                       : avc1\nCodec ID/Info                  : Advanced Video Coding\nDuration                       : 3mn 57s\nBit rate                       : 12.7 Mbps\nMaximum bit rate               : 22.8 Mbps\nWidth                          : 1 904 pixels\nHeight                         : 816 pixels\nDisplay aspect ratio           : 2.35:1\nFrame rate mode                : Constant\nFrame rate                     : 29.970 fps\nColor space                    : YUV\nChroma subsampling             : 4:2:0\nBit depth                      : 8 bits\nScan type                      : Progressive\nBits/(Pixel*Frame)             : 0.273\nStream size                    : 360 MiB (92%)\nTitle                          : Video\nWriting library                : x264 core 105 r1724 b02df7b\n\n\nAudio\nID                             : 2\nFormat                         : AAC\nFormat/Info                    : Advanced Audio Codec\nFormat profile                 : LC\nCodec ID                       : 40\nDuration                       : 3mn 57s\nBit rate mode                  : Variable\nBit rate                       : 1 122 Kbps\nMaximum bit rate               : 1 160 Kbps\nChannel(s)                     : 6 channels\nChannel positions              : Front: L C R, Side: L R, LFE\nSampling rate                  : 48.0 KHz\nCompression mode               : Lossy\nStream size                    : 31.8 MiB (8%)\nLanguage                       : English\n\n","torrent":{"xt":"urn:btih:9c576b692beef52b91ea7de9d967b26a6e5de515","amp;dn":"Adele+-+Set+Fire+to+the+rain%28+Live+At+The+Royal+Albert+Hall%29","amp;tr":["udp%3A%2F%2Ftracker.openbittorrent.com%3A80","udp%3A%2F%2Fopen.demonii.com%3A1337","udp%3A%2F%2Ftracker.coppersurfer.tk%3A6969","udp%3A%2F%2Fexodus.desync.com%3A6969"],"infoHash":"9c576b692beef52b91ea7de9d967b26a6e5de515","infoHashBuffer":{"type":"Buffer","data":[156,87,107,105,43,238,245,43,145,234,125,233,217,103,178,106,110,93,229,21]},"announce":[],"urlList":[]}}